<svg xmlns="http://www.w3.org/2000/svg" xmlns:xlink="http://www.w3.org/1999/xlink" width="500" zoomAndPan="magnify" viewBox="0 0 375 374.999991" height="500" preserveAspectRatio="xMidYMid meet" version="1.2"><g id="dfa5edb702"><path style=" stroke:none;fill-rule:evenodd;fill:#ffffff;fill-opacity:1;" d="M 362.933594 50.488281 C 364.308594 53.597656 362.902344 57.230469 359.789062 58.601562 L 299.214844 85.367188 L 330.109375 167.382812 L 336.058594 179.910156 L 357.25 173.328125 C 360.496094 172.320312 363.945312 174.132812 364.953125 177.375 C 365.964844 180.621094 364.152344 184.070312 360.902344 185.078125 L 334.613281 193.242188 C 331.6875 194.152344 328.539062 192.773438 327.226562 190.007812 L 321.167969 177.25 L 316.535156 178.691406 L 313.207031 193.714844 C 314.875 195.652344 316.644531 198.164062 317.660156 201.429688 C 319.214844 206.429688 318.777344 212.222656 316.203125 219.433594 C 312.941406 228.59375 303.566406 230.40625 297.007812 230.429688 C 293.320312 230.441406 289.519531 229.933594 286.058594 229.203125 C 285.664062 232.507812 284.746094 235.484375 283.300781 238.113281 C 280.628906 242.96875 276.503906 245.992188 272.105469 247.722656 C 266.132812 250.074219 259.375 250.179688 253.683594 249.425781 C 252.203125 254.816406 250.046875 259.265625 247.1875 262.773438 C 243.199219 267.660156 238.144531 270.339844 232.691406 271.316406 C 224.753906 272.734375 216.246094 270.5 208.746094 267.300781 C 207.292969 270.65625 205.457031 273.433594 203.207031 275.605469 C 199.382812 279.292969 194.824219 280.773438 190.347656 280.761719 C 184.230469 280.746094 178.402344 277.988281 173.984375 274.949219 C 170.652344 277.339844 166.914062 279.300781 163.242188 280.605469 C 158.289062 282.371094 151.828125 283.515625 146.585938 280.945312 C 139.480469 277.457031 135.808594 272.886719 134.273438 268.421875 C 134.253906 268.367188 134.234375 268.316406 134.21875 268.261719 C 133.21875 268.261719 132.140625 268.230469 131.011719 268.15625 C 126.082031 267.820312 118.664062 266.496094 113.597656 261.21875 C 109.347656 256.792969 106.890625 251.5 105.5 247.546875 C 105.296875 246.972656 105.113281 246.414062 104.949219 245.886719 C 103.75 245.902344 102.410156 245.882812 100.992188 245.785156 C 96.0625 245.449219 88.644531 244.125 83.578125 238.847656 C 78.519531 233.578125 77.492188 226.132812 77.355469 221.199219 C 77.316406 219.777344 77.347656 218.429688 77.414062 217.21875 C 76.890625 217.035156 76.34375 216.828125 75.777344 216.601562 C 71.882812 215.050781 66.691406 212.378906 62.441406 207.957031 C 56.992188 202.28125 56.785156 194.414062 58.046875 188.519531 C 58.699219 185.472656 59.867188 182.328125 61.453125 179.5625 L 50.773438 172.390625 L 44.042969 191.917969 C 43.484375 193.539062 42.273438 194.851562 40.703125 195.542969 C 39.136719 196.234375 37.347656 196.238281 35.777344 195.558594 L 13.796875 186.039062 C 10.675781 184.6875 9.246094 181.066406 10.597656 177.949219 C 11.949219 174.832031 15.574219 173.398438 18.691406 174.75 L 34.570312 181.625 L 67.945312 84.820312 L 13.6875 60.046875 C 10.59375 58.636719 9.234375 54.984375 10.644531 51.894531 C 12.058594 48.804688 15.710938 47.441406 18.800781 48.855469 L 78.144531 75.945312 C 81.027344 77.261719 82.4375 80.550781 81.40625 83.546875 L 80.484375 86.21875 L 116.183594 92.320312 C 119.535156 92.894531 121.789062 96.074219 121.214844 99.421875 C 120.640625 102.769531 117.460938 105.023438 114.109375 104.449219 L 76.421875 98.007812 L 54.925781 160.351562 L 70.855469 171.050781 C 73.582031 169.820312 76.9375 168.71875 80.496094 168.277344 C 85.929688 167.605469 92.738281 168.425781 97.96875 173.871094 C 98.03125 173.9375 98.09375 174.003906 98.160156 174.070312 C 100.277344 176.273438 102.871094 178.972656 104.800781 182.367188 C 105.609375 183.789062 106.285156 185.296875 106.808594 186.921875 C 113.683594 186.125 121.519531 189.507812 127.984375 196.242188 C 130.5625 198.925781 132.929688 202.496094 133.894531 206.539062 C 135.300781 206.511719 136.773438 206.574219 138.28125 206.753906 C 143.289062 207.351562 149.085938 209.324219 153.742188 214.171875 C 156.484375 217.035156 159.941406 221.964844 161.570312 227.847656 C 162.128906 229.871094 162.480469 232.046875 162.496094 234.300781 C 162.742188 234.339844 162.992188 234.386719 163.242188 234.441406 C 174.515625 236.933594 182.289062 241.945312 184.488281 250.121094 C 185.953125 255.558594 184.488281 260.945312 182.089844 265.550781 C 184.871094 267.277344 187.867188 268.449219 190.378906 268.457031 C 191.980469 268.460938 193.359375 268 194.660156 266.75 C 196.089844 265.371094 197.828125 262.621094 199.082031 257.316406 C 199.519531 255.464844 200.789062 253.921875 202.523438 253.132812 C 204.253906 252.347656 206.253906 252.402344 207.9375 253.289062 C 216.375 257.722656 224.496094 260.28125 230.523438 259.203125 C 233.261719 258.710938 235.632812 257.464844 237.644531 254.996094 C 239.320312 252.945312 240.917969 249.832031 242.070312 245.171875 L 224.179688 233.941406 C 221.300781 232.132812 220.433594 228.335938 222.242188 225.457031 C 224.050781 222.582031 227.851562 221.714844 230.730469 223.519531 L 251.410156 236.507812 C 256.492188 237.746094 262.96875 238.09375 267.59375 236.273438 C 269.851562 235.386719 271.476562 234.066406 272.515625 232.179688 C 273.386719 230.59375 274.082031 228.171875 273.957031 224.488281 L 250.582031 208.214844 C 247.792969 206.273438 247.105469 202.4375 249.046875 199.648438 C 250.992188 196.863281 254.828125 196.175781 257.617188 198.117188 L 282.671875 215.5625 C 286.574219 216.871094 292.136719 218.140625 296.964844 218.125 C 302.597656 218.105469 304.175781 216.515625 304.605469 215.304688 C 306.65625 209.558594 306.394531 206.652344 305.90625 205.082031 C 305.425781 203.539062 304.496094 202.367188 302.664062 200.429688 L 208.769531 146.722656 C 205.816406 145.035156 204.792969 141.277344 206.484375 138.328125 C 208.171875 135.378906 211.933594 134.355469 214.882812 136.042969 L 302.296875 186.042969 L 305.285156 172.546875 C 305.761719 170.390625 307.359375 168.65625 309.46875 168 L 316.378906 165.851562 L 291.054688 98.628906 L 266.460938 104.914062 C 264.597656 105.390625 262.617188 104.96875 261.113281 103.777344 C 259.605469 102.582031 258.742188 100.75 258.78125 98.828125 L 258.847656 95.636719 L 188.378906 86.351562 L 139.332031 117.601562 C 137.730469 123.351562 135.4375 131.121094 133.089844 138.128906 C 131.757812 142.117188 130.375 145.953125 129.066406 149.058594 C 128.542969 150.304688 128.007812 151.492188 127.46875 152.558594 C 129.410156 153.476562 132.203125 154.273438 135.371094 154.339844 C 139.105469 154.414062 143.21875 153.476562 147.105469 150.65625 C 151.003906 147.832031 155.105469 142.804688 158.246094 133.992188 C 158.988281 131.914062 160.785156 130.390625 162.960938 130 L 184.808594 126.097656 C 188.15625 125.496094 191.355469 127.722656 191.953125 131.070312 C 192.550781 134.414062 190.324219 137.609375 186.976562 138.207031 L 168.539062 141.503906 C 164.855469 150.320312 159.957031 156.542969 154.332031 160.621094 C 148.003906 165.207031 141.179688 166.765625 135.121094 166.640625 C 129.164062 166.519531 123.789062 164.773438 120.042969 162.53125 C 118.246094 161.457031 116.332031 159.976562 115.070312 158.058594 C 114.429688 157.085938 113.6875 155.589844 113.628906 153.714844 C 113.558594 151.664062 114.328125 149.722656 115.765625 148.269531 C 115.792969 148.226562 115.957031 147.996094 116.242188 147.46875 C 116.652344 146.707031 117.148438 145.648438 117.71875 144.292969 C 118.851562 141.59375 120.125 138.089844 121.417969 134.226562 C 123.996094 126.515625 126.539062 117.769531 128.085938 112.074219 C 128.488281 110.597656 129.425781 109.324219 130.71875 108.5 L 183.648438 74.769531 C 184.871094 73.992188 186.328125 73.667969 187.765625 73.855469 L 265.917969 84.15625 C 269.027344 84.566406 271.332031 87.246094 271.269531 90.382812 L 271.257812 90.988281 L 286.691406 87.042969 L 285.640625 84.257812 C 284.492188 81.203125 285.925781 77.78125 288.914062 76.460938 L 354.816406 47.347656 C 357.921875 45.972656 361.558594 47.378906 362.933594 50.488281 Z M 169.253906 262.976562 C 172.394531 258.546875 173.121094 255.25 172.601562 253.316406 C 172.210938 251.867188 170.3125 248.625 160.664062 246.472656 C 160.578125 246.484375 160.359375 246.53125 159.964844 246.707031 C 159.199219 247.058594 158.164062 247.746094 156.902344 248.875 C 154.023438 251.457031 151.089844 255.308594 148.769531 258.773438 C 147.640625 260.457031 146.710938 261.964844 146.066406 263.042969 C 145.941406 263.253906 145.828125 263.445312 145.726562 263.621094 C 145.753906 263.835938 145.808594 264.109375 145.914062 264.417969 C 146.234375 265.347656 147.359375 267.613281 152.011719 269.898438 C 152.621094 270.199219 154.972656 270.488281 159.109375 269.015625 C 162.71875 267.730469 166.464844 265.515625 169.253906 262.976562 Z M 135.992188 255.914062 C 136.671875 254.796875 137.535156 253.425781 138.542969 251.921875 C 140.949219 248.332031 144.402344 243.664062 148.269531 240.089844 C 150.382812 237.289062 150.578125 234.285156 149.703125 231.128906 C 148.738281 227.640625 146.539062 224.445312 144.859375 222.695312 M 135.992188 255.914062 C 134.816406 255.96875 133.378906 255.984375 131.847656 255.878906 C 127.648438 255.59375 124.230469 254.519531 122.476562 252.695312 C 119.90625 250.019531 118.191406 246.523438 117.113281 243.464844 C 116.796875 242.574219 116.550781 241.75 116.355469 241.039062 C 116.890625 240.441406 117.464844 239.816406 118.074219 239.152344 C 122.328125 234.519531 128.15625 228.171875 132.136719 218.976562 C 133.492188 218.816406 135.117188 218.769531 136.816406 218.972656 C 139.84375 219.332031 142.695312 220.441406 144.859375 222.695312 M 106.546875 233.511719 C 107.726562 232.125 108.917969 230.824219 110.09375 229.535156 C 114.550781 224.667969 118.832031 219.988281 121.832031 211.574219 C 122.320312 210.199219 122.003906 207.78125 119.105469 204.761719 C 111.714844 197.070312 107.027344 199.292969 106.136719 200.144531 L 89.894531 215.730469 C 89.746094 217 89.605469 218.832031 89.660156 220.859375 C 89.777344 225.058594 90.710938 228.503906 92.460938 230.324219 C 94.210938 232.152344 97.628906 233.222656 101.828125 233.507812 C 103.621094 233.628906 105.277344 233.589844 106.546875 233.511719 Z M 95.617188 193.183594 C 95.390625 191.203125 94.820312 189.722656 94.097656 188.449219 C 92.992188 186.503906 91.421875 184.824219 89.085938 182.390625 C 87.492188 180.734375 85.191406 180.097656 82.007812 180.488281 C 78.921875 180.871094 75.851562 182.164062 73.964844 183.269531 C 72.820312 184.257812 70.925781 187.175781 70.085938 191.09375 C 69.21875 195.15625 69.949219 198.007812 71.324219 199.433594 C 73.894531 202.113281 77.316406 203.96875 80.332031 205.171875 C 81.0625 205.460938 81.742188 205.703125 82.355469 205.90625 Z M 95.617188 193.183594 "/></g></svg>