<svg xmlns="http://www.w3.org/2000/svg" xmlns:xlink="http://www.w3.org/1999/xlink" width="500" zoomAndPan="magnify" viewBox="0 0 375 374.999991" height="500" preserveAspectRatio="xMidYMid meet" version="1.2"><defs><clipPath id="ea18d77ab1"><path d="M 86 219 L 225 219 L 225 311.929688 L 86 311.929688 Z M 86 219 "/></clipPath><clipPath id="999942a131"><path d="M 37.5 109 L 134 109 L 134 266 L 37.5 266 Z M 37.5 109 "/></clipPath><clipPath id="64677dc7e6"><path d="M 162 48.679688 L 342.75 48.679688 L 342.75 228 L 162 228 Z M 162 48.679688 "/></clipPath></defs><g id="dcb07a4754"><g clip-rule="nonzero" clip-path="url(#ea18d77ab1)"><path style=" stroke:none;fill-rule:nonzero;fill:#ffffff;fill-opacity:1;" d="M 214.910156 249.957031 C 219.007812 242.726562 222.140625 235.011719 223.828125 227.058594 C 224.308594 225.371094 223.828125 223.925781 223.105469 222.476562 C 222.140625 221.03125 220.933594 220.066406 219.246094 219.828125 C 216.113281 219.101562 212.738281 221.273438 212.015625 224.40625 C 210.328125 232.359375 207.195312 239.832031 202.617188 246.824219 C 201.410156 248.75 201.410156 251.164062 202.617188 253.332031 L 211.292969 267.070312 C 207.917969 271.167969 204.0625 275.027344 199.964844 278.398438 L 186.226562 269.722656 C 184.296875 268.515625 181.644531 268.515625 179.714844 269.722656 C 172.726562 274.0625 165.253906 277.195312 157.300781 279.125 C 154.890625 279.605469 153.203125 281.292969 152.71875 283.703125 L 149.105469 299.371094 C 143.558594 299.851562 138.496094 299.851562 132.953125 299.371094 L 129.339844 283.703125 C 128.855469 281.292969 127.167969 279.605469 124.757812 279.125 C 116.804688 277.195312 109.089844 274.0625 102.339844 269.722656 C 100.414062 268.515625 97.761719 268.515625 95.832031 269.722656 L 89.566406 273.578125 C 86.671875 275.265625 85.949219 279.125 87.636719 281.773438 C 89.324219 284.425781 93.179688 285.390625 96.074219 283.703125 L 99.207031 281.773438 C 105.234375 285.148438 111.742188 287.800781 118.492188 289.730469 L 122.105469 306.121094 C 122.589844 308.53125 124.757812 310.460938 127.167969 310.699219 C 131.75 311.421875 136.328125 311.664062 140.910156 311.664062 C 145.488281 311.664062 150.066406 311.421875 154.648438 310.699219 C 157.058594 310.460938 159.226562 308.53125 159.710938 306.121094 L 163.324219 289.730469 C 170.074219 287.800781 176.582031 285.148438 182.609375 281.773438 L 196.832031 290.695312 C 199 291.898438 201.652344 291.898438 203.820312 290.453125 C 211.292969 284.667969 217.800781 278.160156 223.34375 270.929688 C 224.792969 269 225.03125 266.105469 223.585938 263.9375 Z M 214.910156 249.957031 "/></g><g clip-rule="nonzero" clip-path="url(#999942a131)"><path style=" stroke:none;fill-rule:nonzero;fill:#ffffff;fill-opacity:1;" d="M 82.574219 138.113281 L 96.316406 146.789062 C 98.242188 147.996094 100.894531 147.996094 102.824219 146.789062 C 109.8125 142.449219 117.285156 139.316406 125.242188 137.390625 C 127.652344 136.90625 129.339844 135.21875 129.820312 132.808594 L 133.4375 116.898438 C 134.160156 113.765625 132.230469 110.390625 128.855469 109.667969 C 125.722656 108.945312 122.347656 111.113281 121.625 114.25 L 118.730469 126.542969 C 111.984375 128.46875 105.476562 131.121094 99.449219 134.496094 L 85.226562 125.578125 C 83.058594 124.132812 80.40625 124.371094 78.238281 125.820312 C 71.003906 131.363281 64.257812 137.871094 58.710938 145.34375 C 57.265625 147.273438 57.023438 150.164062 58.472656 152.09375 L 67.390625 166.3125 C 64.015625 172.339844 61.363281 178.847656 59.433594 185.355469 L 43.042969 188.972656 C 40.632812 189.453125 38.707031 191.625 38.464844 194.035156 C 37.742188 198.613281 37.5 203.195312 37.5 207.773438 C 37.5 212.59375 37.742188 217.175781 38.464844 221.511719 C 38.707031 223.925781 40.632812 226.09375 43.042969 226.574219 L 59.433594 230.191406 C 61.363281 236.941406 64.015625 243.449219 67.390625 249.476562 L 63.292969 255.984375 C 62.328125 257.429688 62.085938 258.875 62.570312 260.5625 C 62.808594 262.007812 63.773438 263.457031 65.21875 264.417969 C 66.183594 265.144531 67.390625 265.382812 68.355469 265.382812 C 70.523438 265.382812 72.210938 264.417969 73.414062 262.492188 L 79.441406 252.847656 C 80.648438 250.921875 80.648438 248.269531 79.441406 246.339844 C 75.101562 239.351562 71.96875 231.636719 70.042969 223.925781 C 69.558594 221.753906 67.871094 219.828125 65.460938 219.34375 L 49.792969 215.726562 C 49.550781 213.078125 49.550781 210.425781 49.550781 207.53125 C 49.550781 204.882812 49.792969 202.230469 49.792969 199.578125 L 65.703125 195.960938 C 67.871094 195.480469 69.800781 193.792969 70.28125 191.382812 C 71.96875 183.429688 75.101562 175.957031 79.683594 168.964844 C 80.886719 167.039062 80.886719 164.386719 79.683594 162.457031 L 71.003906 148.71875 C 74.621094 145.34375 78.476562 141.488281 82.574219 138.113281 Z M 82.574219 138.113281 "/></g><path style=" stroke:none;fill-rule:nonzero;fill:#ffffff;fill-opacity:1;" d="M 147.898438 116.898438 C 148.140625 116.898438 148.140625 116.898438 148.378906 116.898438 C 151.515625 116.898438 154.164062 114.488281 154.40625 111.355469 C 154.648438 107.980469 151.996094 105.089844 148.863281 105.089844 C 145.488281 104.847656 142.59375 107.5 142.59375 110.632812 C 142.59375 112.320312 143.078125 113.765625 144.042969 114.972656 C 144.765625 116.175781 146.210938 116.898438 147.898438 116.898438 Z M 147.898438 116.898438 "/><path style=" stroke:none;fill-rule:nonzero;fill:#ffffff;fill-opacity:1;" d="M 69.558594 274.542969 C 68.355469 275.75 67.871094 277.195312 67.871094 278.882812 C 67.871094 280.570312 68.59375 282.015625 69.800781 283.222656 C 71.003906 284.183594 72.453125 284.910156 73.898438 284.910156 C 75.585938 284.910156 77.03125 284.183594 78.238281 282.980469 C 79.441406 281.773438 79.925781 280.328125 79.925781 278.640625 C 79.925781 276.953125 79.199219 275.507812 77.996094 274.300781 C 75.585938 272.132812 71.726562 272.132812 69.558594 274.542969 Z M 69.558594 274.542969 "/><path style=" stroke:none;fill-rule:nonzero;fill:#ffffff;fill-opacity:1;" d="M 141.390625 266.105469 C 165.976562 266.105469 187.671875 250.679688 195.867188 227.539062 C 197.070312 224.40625 195.382812 221.03125 192.25 219.828125 C 189.117188 218.621094 185.742188 220.308594 184.539062 223.441406 C 178.027344 241.761719 160.675781 253.8125 141.390625 253.8125 C 116.082031 253.8125 95.59375 233.324219 95.59375 208.015625 C 95.59375 182.707031 116.082031 162.214844 141.390625 162.214844 C 143.078125 162.214844 144.765625 162.214844 146.210938 162.457031 C 149.585938 162.941406 152.476562 160.527344 152.960938 157.15625 C 153.441406 153.78125 151.03125 150.886719 147.65625 150.40625 C 145.730469 150.164062 143.558594 150.164062 141.390625 150.164062 C 109.574219 150.164062 83.539062 176.195312 83.539062 208.015625 C 83.539062 239.832031 109.332031 266.105469 141.390625 266.105469 Z M 141.390625 266.105469 "/><g clip-rule="nonzero" clip-path="url(#64677dc7e6)"><path style=" stroke:none;fill-rule:nonzero;fill:#ffffff;fill-opacity:1;" d="M 340.976562 126.542969 C 340.734375 124.132812 338.804688 121.960938 336.394531 121.480469 L 322.898438 118.347656 C 321.449219 112.800781 319.28125 107.742188 316.390625 102.679688 L 323.621094 91.109375 C 325.066406 88.9375 324.824219 86.289062 323.378906 84.117188 C 318.558594 77.851562 313.015625 72.066406 306.507812 67.246094 C 304.578125 65.796875 301.683594 65.558594 299.515625 67.003906 L 287.945312 74.234375 C 283.125 71.582031 277.820312 69.414062 272.277344 67.726562 L 269.144531 54.226562 C 268.660156 51.816406 266.492188 49.890625 264.082031 49.648438 C 256.367188 48.683594 248.171875 48.683594 240.460938 49.648438 C 238.050781 49.890625 235.878906 51.816406 235.398438 54.226562 L 232.265625 67.726562 C 226.71875 69.171875 221.660156 71.34375 216.597656 74.234375 L 205.027344 67.003906 C 202.855469 65.558594 200.207031 65.796875 198.035156 67.246094 C 191.769531 72.066406 185.984375 77.609375 181.164062 84.117188 C 179.714844 86.046875 179.476562 88.9375 180.921875 91.109375 L 188.152344 102.679688 C 185.5 107.5 183.332031 112.800781 181.644531 118.347656 L 168.144531 121.480469 C 165.734375 121.960938 163.808594 124.132812 163.566406 126.542969 C 163.085938 130.398438 162.84375 134.496094 162.84375 138.351562 C 162.84375 142.210938 163.085938 146.308594 163.566406 150.164062 C 163.808594 152.574219 165.734375 154.746094 168.144531 155.226562 L 181.644531 158.359375 C 183.089844 163.902344 185.261719 168.964844 188.152344 174.027344 L 180.921875 185.597656 C 180.199219 187.765625 180.199219 190.417969 181.886719 192.589844 C 186.707031 198.855469 192.25 204.398438 198.757812 209.460938 C 200.6875 210.90625 203.578125 211.148438 205.75 209.703125 L 217.320312 202.472656 C 222.140625 205.121094 227.445312 207.292969 232.988281 208.980469 L 236.121094 222.476562 C 236.601562 224.886719 238.773438 226.816406 241.183594 227.058594 C 245.039062 227.539062 249.136719 227.78125 252.996094 227.78125 C 256.851562 227.78125 260.949219 227.539062 264.804688 227.058594 C 267.214844 226.816406 269.386719 224.886719 269.867188 222.476562 L 273 208.980469 C 278.546875 207.53125 283.605469 205.363281 288.667969 202.472656 L 300.238281 209.703125 C 302.410156 211.148438 305.058594 210.90625 307.230469 209.460938 C 313.496094 204.640625 319.28125 198.855469 324.101562 192.589844 C 325.546875 190.660156 325.789062 187.765625 324.34375 185.597656 L 317.113281 174.027344 C 320.003906 168.964844 322.175781 163.902344 323.621094 158.359375 L 337.117188 155.226562 C 339.53125 154.746094 341.457031 152.574219 341.699219 150.164062 C 342.179688 146.308594 342.421875 142.210938 342.421875 138.351562 C 341.941406 134.496094 341.699219 130.398438 340.976562 126.542969 Z M 329.644531 144.621094 L 316.871094 147.511719 C 314.703125 147.996094 312.773438 149.683594 312.292969 152.09375 C 310.84375 158.84375 308.195312 165.109375 304.578125 170.894531 C 303.371094 172.824219 303.371094 175.472656 304.578125 177.402344 L 311.566406 188.492188 C 308.917969 191.625 306.023438 194.515625 302.890625 197.167969 L 291.800781 190.179688 C 289.875 188.972656 287.222656 188.972656 285.292969 190.179688 C 279.507812 193.792969 273.242188 196.445312 266.492188 197.890625 C 264.324219 198.375 262.394531 200.0625 261.914062 202.472656 L 259.019531 215.246094 C 254.921875 215.488281 250.824219 215.488281 246.726562 215.246094 L 243.835938 202.472656 C 243.351562 200.300781 241.664062 198.375 239.253906 197.890625 C 232.503906 196.445312 226.238281 193.792969 220.453125 190.179688 C 218.523438 188.972656 215.875 188.972656 213.945312 190.179688 L 202.855469 197.167969 C 199.722656 194.515625 196.832031 191.625 194.179688 188.492188 L 201.167969 177.402344 C 202.375 175.472656 202.375 172.824219 201.167969 170.894531 C 197.554688 165.109375 194.902344 158.601562 193.457031 152.09375 C 192.972656 149.921875 191.285156 147.996094 188.875 147.511719 L 176.101562 144.621094 C 175.859375 142.449219 175.859375 140.523438 175.859375 138.351562 C 175.859375 136.425781 175.859375 134.253906 176.101562 132.328125 L 188.875 129.433594 C 191.046875 128.953125 192.972656 127.265625 193.457031 124.855469 C 194.902344 118.105469 197.554688 111.839844 201.167969 106.054688 C 202.375 104.125 202.375 101.472656 201.167969 99.542969 L 194.179688 88.457031 C 196.832031 85.324219 199.722656 82.429688 202.855469 79.777344 L 213.945312 86.769531 C 215.875 87.976562 218.523438 87.976562 220.453125 86.769531 C 226.238281 83.152344 232.503906 80.503906 239.253906 78.816406 C 241.425781 78.332031 243.351562 76.644531 243.835938 74.234375 L 246.726562 61.460938 C 250.824219 61.21875 254.921875 61.21875 259.019531 61.460938 L 261.914062 74.234375 C 262.394531 76.40625 264.082031 78.332031 266.492188 78.816406 C 273.242188 80.261719 279.507812 82.914062 285.292969 86.769531 C 287.222656 87.976562 289.875 87.976562 291.800781 86.769531 L 302.890625 79.777344 C 306.023438 82.429688 308.917969 85.324219 311.566406 88.457031 L 304.578125 99.542969 C 303.371094 101.472656 303.371094 104.125 304.578125 106.054688 C 308.195312 111.839844 310.84375 118.105469 312.292969 124.855469 C 312.773438 127.023438 314.460938 128.953125 316.871094 129.433594 L 329.644531 132.328125 C 329.886719 134.253906 329.886719 136.425781 329.886719 138.351562 C 329.886719 140.523438 329.644531 142.449219 329.644531 144.621094 Z M 329.644531 144.621094 "/></g><path style=" stroke:none;fill-rule:nonzero;fill:#ffffff;fill-opacity:1;" d="M 289.152344 132.328125 C 285.777344 132.328125 283.125 134.976562 283.125 138.351562 C 283.125 140.039062 283.847656 141.488281 284.8125 142.691406 C 286.015625 143.898438 287.464844 144.378906 289.152344 144.378906 C 292.527344 144.378906 295.175781 141.726562 295.175781 138.351562 C 295.175781 134.976562 292.527344 132.328125 289.152344 132.328125 Z M 289.152344 132.328125 "/><path style=" stroke:none;fill-rule:nonzero;fill:#ffffff;fill-opacity:1;" d="M 285.777344 155.226562 C 283.125 153.296875 279.269531 154.019531 277.339844 156.429688 C 271.554688 164.386719 262.636719 168.964844 252.753906 168.964844 C 235.878906 168.964844 222.382812 155.226562 222.382812 138.59375 C 222.382812 121.722656 236.121094 108.222656 252.753906 107.980469 C 262.636719 107.980469 271.554688 112.5625 277.339844 120.515625 C 279.269531 123.167969 283.125 123.648438 285.777344 121.960938 C 286.980469 120.996094 287.945312 119.550781 288.1875 118.105469 C 288.429688 116.417969 287.945312 114.972656 286.980469 113.527344 C 279.027344 102.4375 266.25 95.929688 252.511719 95.929688 C 229.128906 95.929688 210.089844 114.972656 210.089844 138.59375 C 210.089844 161.976562 229.128906 181.019531 252.511719 181.019531 C 266.011719 181.019531 278.785156 174.511719 286.742188 163.664062 C 287.703125 162.457031 288.1875 160.769531 287.945312 159.082031 C 287.945312 157.394531 286.980469 156.191406 285.777344 155.226562 Z M 285.777344 155.226562 "/></g></svg>