<svg xmlns="http://www.w3.org/2000/svg" xmlns:xlink="http://www.w3.org/1999/xlink" width="500" zoomAndPan="magnify" viewBox="0 0 375 374.999991" height="500" preserveAspectRatio="xMidYMid meet" version="1.2"><defs><clipPath id="d141fd5878"><path d="M 187 65.042969 L 323 65.042969 L 323 125 L 187 125 Z M 187 65.042969 "/></clipPath><clipPath id="8d4db45e98"><path d="M 37.5 81 L 337.5 81 L 337.5 276.542969 L 37.5 276.542969 Z M 37.5 81 "/></clipPath></defs><g id="d27b0e3baf"><rect x="0" width="375" y="0" height="374.999991" style="fill:#ffffff;fill-opacity:1;stroke:none;"/><rect x="0" width="375" y="0" height="374.999991" style="fill:#000000;fill-opacity:1;stroke:none;"/><g clip-rule="nonzero" clip-path="url(#d141fd5878)"><path style=" stroke:none;fill-rule:nonzero;fill:#ffffff;fill-opacity:1;" d="M 191.636719 124.292969 C 192.710938 124.292969 193.789062 123.882812 194.617188 123.136719 L 227.046875 92.027344 L 260.636719 118.421875 C 262.210938 119.578125 264.445312 119.742188 266.015625 118.421875 L 313.339844 81.601562 L 311.6875 103.609375 C 311.519531 106.011719 313.257812 108.078125 315.65625 108.242188 C 315.742188 108.242188 315.824219 108.242188 315.988281 108.242188 C 318.304688 108.242188 320.125 106.421875 320.375 104.273438 L 322.855469 72.417969 C 322.9375 71.261719 322.523438 70.101562 321.863281 69.273438 C 321.035156 68.363281 320.042969 67.867188 318.882812 67.785156 L 284.632812 65.304688 C 282.234375 65.136719 280.164062 66.875 280 69.273438 C 279.832031 71.675781 281.570312 73.742188 283.96875 73.910156 L 306.96875 75.5625 L 263.453125 109.402344 L 229.53125 82.761719 C 227.875 81.4375 225.394531 81.601562 223.902344 83.09375 L 188.742188 116.765625 C 187.417969 117.925781 187.085938 119.828125 187.75 121.5625 C 188.328125 123.21875 189.898438 124.292969 191.636719 124.292969 Z M 191.636719 124.292969 "/></g><g clip-rule="nonzero" clip-path="url(#8d4db45e98)"><path style=" stroke:none;fill-rule:nonzero;fill:#ffffff;fill-opacity:1;" d="M 333.03125 266.765625 L 323.847656 266.765625 L 323.847656 139.351562 C 323.765625 136.871094 321.699219 134.882812 319.296875 134.882812 L 280.164062 134.882812 C 277.683594 134.882812 275.695312 136.871094 275.613281 139.351562 L 275.613281 266.847656 L 252.695312 266.847656 L 252.695312 163.347656 C 252.613281 160.863281 250.628906 158.960938 248.144531 158.960938 L 209.011719 158.960938 C 206.613281 158.960938 204.460938 160.863281 204.460938 163.347656 L 204.460938 266.765625 L 181.542969 266.765625 L 181.542969 208.023438 C 181.460938 205.542969 179.476562 203.636719 176.992188 203.554688 L 137.859375 203.554688 C 135.460938 203.554688 133.226562 205.625 133.226562 208.023438 L 133.226562 266.765625 L 88.546875 266.765625 L 88.546875 245.089844 L 93.179688 245.089844 C 113.617188 245.089844 130 229.78125 130 211.25 L 130 204.21875 C 130 201.816406 128.34375 199.832031 125.945312 199.832031 L 118.085938 199.832031 C 106.003906 199.832031 95.25 205.210938 88.464844 213.316406 L 88.464844 191.808594 L 93.097656 191.808594 C 113.535156 191.808594 129.914062 176.75 129.914062 158.132812 L 129.914062 151.101562 C 129.914062 148.703125 128.261719 146.632812 125.863281 146.632812 L 118 146.632812 C 106.585938 146.550781 95.746094 151.597656 88.382812 160.367188 L 88.382812 138.609375 L 93.015625 138.609375 C 113.453125 138.609375 129.832031 123.714844 129.832031 105.015625 L 129.832031 97.984375 C 129.914062 96.910156 129.417969 95.832031 128.757812 95.089844 C 127.929688 94.261719 126.9375 93.929688 125.863281 94.011719 L 118 94.011719 C 105.921875 94.011719 95.167969 99.058594 88.382812 107.25 L 88.382812 86.234375 C 88.382812 83.835938 86.398438 81.851562 83.996094 81.851562 C 81.597656 81.851562 79.613281 83.835938 79.613281 86.234375 L 79.613281 107.085938 C 78.949219 106.175781 78.125 105.429688 77.214844 104.601562 C 70.179688 97.570312 60.003906 93.1875 49.828125 93.847656 L 42.214844 93.847656 C 39.816406 93.847656 37.75 95.503906 37.75 97.902344 L 37.75 105.015625 C 37.75 123.550781 54.542969 138.609375 74.980469 138.609375 L 79.859375 138.609375 L 79.859375 160.367188 C 79.199219 159.457031 78.371094 158.546875 77.460938 157.800781 C 70.179688 150.769531 60.5 146.796875 50.324219 146.796875 C 50.242188 146.796875 49.992188 146.714844 49.910156 146.714844 L 42.132812 146.714844 C 39.652344 146.796875 37.75 148.785156 37.664062 151.183594 L 37.664062 158.214844 C 37.664062 176.75 54.460938 191.890625 74.898438 191.890625 L 79.777344 191.890625 L 79.777344 213.402344 C 79.117188 212.492188 78.289062 211.582031 77.378906 210.835938 C 70.097656 203.804688 60.417969 199.914062 50.242188 199.914062 L 41.96875 199.914062 C 39.570312 199.914062 37.582031 201.816406 37.5 204.300781 L 37.5 211.332031 C 37.5 229.867188 54.296875 245.171875 74.730469 245.171875 L 79.613281 245.171875 L 79.613281 266.847656 L 56.777344 266.847656 C 54.378906 266.847656 52.390625 268.832031 52.390625 271.234375 C 52.390625 273.632812 54.378906 275.617188 56.777344 275.617188 L 81.597656 275.617188 C 82.261719 276.113281 83.085938 276.445312 83.996094 276.28125 C 84.90625 276.363281 85.652344 276.113281 86.398438 275.617188 L 333.113281 275.617188 C 335.515625 275.617188 337.5 273.632812 337.5 271.234375 C 337.335938 268.75 335.429688 266.765625 333.03125 266.765625 Z M 89.707031 233.589844 C 89.707031 219.773438 102.449219 208.601562 118.085938 208.601562 L 121.230469 208.601562 L 121.230469 211.25 C 121.230469 225.066406 108.734375 236.484375 93.015625 236.484375 L 89.707031 236.484375 Z M 89.707031 180.554688 C 89.707031 166.738281 102.449219 155.320312 118.085938 155.320312 L 121.230469 155.320312 L 121.230469 158.214844 C 121.230469 172.03125 108.734375 183.203125 93.015625 183.203125 L 89.707031 183.203125 Z M 89.707031 127.4375 C 89.707031 113.621094 102.449219 102.617188 118.085938 102.617188 L 121.230469 102.617188 L 121.230469 105.015625 C 121.230469 118.835938 108.734375 129.835938 93.015625 129.835938 L 89.707031 129.835938 Z M 78.453125 129.921875 L 74.898438 129.921875 C 59.175781 129.921875 46.269531 118.917969 46.269531 105.101562 L 46.269531 102.699219 L 49.992188 102.699219 C 58.019531 102.121094 65.878906 105.597656 71.339844 110.972656 C 75.972656 115.605469 78.621094 121.398438 78.621094 127.519531 L 78.621094 129.921875 Z M 78.453125 183.203125 L 74.898438 183.203125 C 59.175781 183.203125 46.269531 171.949219 46.269531 158.214844 L 46.269531 155.320312 L 49.992188 155.320312 C 58.019531 155.320312 65.878906 158.382812 71.339844 163.757812 C 75.890625 168.144531 78.453125 174.183594 78.621094 180.554688 L 78.621094 183.203125 Z M 78.453125 236.484375 L 74.898438 236.484375 C 59.175781 236.484375 46.269531 225.066406 46.269531 211.25 L 46.269531 208.601562 L 50.160156 208.601562 C 58.019531 208.519531 65.546875 211.582031 71.171875 216.957031 C 75.808594 221.59375 78.453125 227.464844 78.453125 233.671875 Z M 141.746094 266.765625 L 141.746094 212.242188 L 172.691406 212.242188 L 172.691406 266.765625 Z M 212.898438 266.765625 L 212.898438 167.648438 L 243.84375 167.648438 L 243.84375 266.765625 Z M 284.21875 266.765625 L 284.21875 143.570312 L 315.160156 143.570312 L 315.160156 266.847656 Z M 284.21875 266.765625 "/></g></g></svg>