<svg xmlns="http://www.w3.org/2000/svg" xmlns:xlink="http://www.w3.org/1999/xlink" width="500" zoomAndPan="magnify" viewBox="0 0 375 374.999991" height="500" preserveAspectRatio="xMidYMid meet" version="1.2"><defs><clipPath id="22a0342795"><path d="M 53.957031 22.488281 L 320.957031 22.488281 L 320.957031 326 L 53.957031 326 Z M 53.957031 22.488281 "/></clipPath></defs><g id="4a5de88365"><rect x="0" width="375" y="0" height="374.999991" style="fill:#ffffff;fill-opacity:1;stroke:none;"/><rect x="0" width="375" y="0" height="374.999991" style="fill:#000000;fill-opacity:1;stroke:none;"/><g clip-rule="nonzero" clip-path="url(#22a0342795)"><path style=" stroke:none;fill-rule:nonzero;fill:#ffffff;fill-opacity:1;" d="M 317.167969 60.582031 L 308.351562 60.582031 L 256.820312 23.214844 L 256.820312 23.21875 C 256.199219 22.765625 255.4375 22.496094 254.605469 22.496094 L 239.644531 22.496094 C 239.316406 22.496094 238.996094 22.539062 238.6875 22.621094 L 238.6875 22.617188 L 87.757812 62.046875 L 65.742188 62.046875 C 63.65625 62.046875 61.964844 63.742188 61.964844 65.824219 L 61.964844 88.328125 C 61.964844 90.132812 63.230469 91.636719 64.921875 92.007812 L 64.921875 106.894531 L 57.746094 106.894531 C 55.664062 106.894531 53.972656 108.589844 53.972656 110.671875 L 53.972656 134.0625 C 53.972656 136.144531 55.664062 137.835938 57.746094 137.835938 L 96.230469 137.835938 C 98.3125 137.835938 100.007812 136.144531 100.007812 134.0625 L 100.007812 110.671875 C 100.007812 108.589844 98.3125 106.894531 96.230469 106.894531 L 89.054688 106.894531 L 89.054688 92.007812 C 90.742188 91.636719 92.007812 90.132812 92.011719 88.328125 L 228.101562 88.328125 L 228.101562 90.421875 C 228.101562 92.507812 229.792969 94.199219 231.875 94.199219 L 235.859375 94.199219 L 235.859375 301.179688 L 232.199219 301.179688 C 225.386719 301.179688 219.847656 306.71875 219.847656 313.527344 L 219.847656 322.101562 C 219.847656 324.183594 221.542969 325.875 223.625 325.875 L 270.609375 325.875 C 272.695312 325.875 274.386719 324.183594 274.386719 322.101562 L 274.386719 313.527344 C 274.386719 306.71875 268.847656 301.179688 262.039062 301.179688 L 258.375 301.179688 L 258.375 94.199219 L 262.359375 94.199219 C 264.441406 94.199219 266.136719 92.507812 266.136719 90.421875 L 266.136719 88.328125 L 293.289062 88.328125 L 293.289062 89.792969 C 293.289062 91.878906 294.980469 93.570312 297.066406 93.570312 L 317.15625 93.570312 C 319.238281 93.570312 320.933594 91.878906 320.933594 89.792969 L 320.933594 64.359375 C 320.945312 62.269531 319.253906 60.582031 317.167969 60.582031 Z M 250.828125 30.050781 L 250.828125 59.953125 L 243.421875 59.953125 L 243.421875 30.050781 Z M 69.519531 69.601562 L 84.464844 69.601562 L 84.464844 84.550781 L 69.519531 84.550781 Z M 92.460938 130.285156 L 61.523438 130.285156 L 61.523438 114.449219 L 92.453125 114.449219 L 92.453125 130.285156 Z M 72.476562 106.894531 L 72.476562 92.097656 L 81.507812 92.097656 L 81.507812 106.894531 Z M 92.019531 80.78125 L 92.019531 73.371094 L 228.105469 73.371094 L 228.105469 80.773438 L 92.019531 80.773438 Z M 228.105469 63.730469 L 228.105469 65.824219 L 103.203125 65.824219 L 235.875 31.164062 L 235.875 59.953125 L 231.890625 59.953125 C 229.800781 59.953125 228.105469 61.640625 228.105469 63.730469 Z M 266.839844 313.527344 L 266.839844 318.324219 L 227.40625 318.324219 L 227.40625 313.527344 C 227.40625 310.882812 229.558594 308.730469 232.203125 308.730469 L 262.042969 308.730469 C 264.6875 308.730469 266.839844 310.882812 266.839844 313.527344 Z M 250.828125 301.179688 L 243.421875 301.179688 L 243.421875 94.199219 L 250.828125 94.199219 Z M 258.589844 86.648438 L 235.660156 86.648438 L 235.660156 67.507812 L 258.589844 67.507812 Z M 258.382812 59.953125 L 258.382812 33.675781 L 295.792969 60.808594 C 294.339844 61.332031 293.296875 62.722656 293.296875 64.359375 L 293.296875 65.824219 L 266.140625 65.824219 L 266.140625 63.730469 C 266.140625 61.644531 264.449219 59.953125 262.367188 59.953125 Z M 266.140625 80.78125 L 266.140625 73.371094 L 293.296875 73.371094 L 293.296875 80.773438 L 266.140625 80.773438 Z M 313.394531 86.015625 L 300.855469 86.015625 L 300.855469 68.136719 L 313.394531 68.136719 Z M 87.746094 208 L 104.941406 208 C 107.023438 208 108.71875 206.304688 108.71875 204.222656 L 108.71875 187.027344 C 108.71875 184.941406 107.023438 183.25 104.941406 183.25 L 87.746094 183.25 C 85.664062 183.25 83.96875 184.941406 83.96875 187.027344 L 83.96875 204.222656 C 83.96875 206.304688 85.664062 208 87.746094 208 Z M 91.523438 190.796875 L 101.164062 190.796875 L 101.164062 200.4375 L 91.523438 200.4375 Z M 87.746094 239.496094 L 104.941406 239.496094 C 107.023438 239.496094 108.71875 237.800781 108.71875 235.71875 L 108.71875 218.523438 C 108.71875 216.4375 107.023438 214.746094 104.941406 214.746094 L 87.746094 214.746094 C 85.664062 214.746094 83.96875 216.4375 83.96875 218.523438 L 83.96875 235.71875 C 83.96875 237.808594 85.664062 239.496094 87.746094 239.496094 Z M 91.523438 222.300781 L 101.164062 222.300781 L 101.164062 231.941406 L 91.523438 231.941406 Z M 87.746094 270.996094 L 104.941406 270.996094 C 107.023438 270.996094 108.71875 269.304688 108.71875 267.222656 L 108.71875 250.023438 C 108.71875 247.941406 107.023438 246.25 104.941406 246.25 L 87.746094 246.25 C 85.664062 246.25 83.96875 247.941406 83.96875 250.023438 L 83.96875 267.222656 C 83.96875 269.304688 85.664062 270.996094 87.746094 270.996094 Z M 91.523438 253.800781 L 101.164062 253.800781 L 101.164062 263.445312 L 91.523438 263.445312 Z M 118.839844 208 L 136.035156 208 C 138.117188 208 139.8125 206.304688 139.8125 204.222656 L 139.8125 187.027344 C 139.8125 184.941406 138.117188 183.25 136.035156 183.25 L 118.839844 183.25 C 116.753906 183.25 115.0625 184.941406 115.0625 187.027344 L 115.0625 204.222656 C 115.0625 206.304688 116.753906 208 118.839844 208 Z M 122.617188 190.796875 L 132.257812 190.796875 L 132.257812 200.4375 L 122.617188 200.4375 Z M 118.839844 239.496094 L 136.035156 239.496094 C 138.117188 239.496094 139.8125 237.800781 139.8125 235.71875 L 139.8125 218.523438 C 139.8125 216.4375 138.117188 214.746094 136.035156 214.746094 L 118.839844 214.746094 C 116.753906 214.746094 115.0625 216.4375 115.0625 218.523438 L 115.0625 235.71875 C 115.0625 237.808594 116.753906 239.496094 118.839844 239.496094 Z M 122.617188 222.300781 L 132.257812 222.300781 L 132.257812 231.941406 L 122.617188 231.941406 Z M 118.839844 270.996094 L 136.035156 270.996094 C 138.117188 270.996094 139.8125 269.304688 139.8125 267.222656 L 139.8125 250.023438 C 139.8125 247.941406 138.117188 246.25 136.035156 246.25 L 118.839844 246.25 C 116.753906 246.25 115.0625 247.941406 115.0625 250.023438 L 115.0625 267.222656 C 115.0625 269.304688 116.753906 270.996094 118.839844 270.996094 Z M 122.617188 253.800781 L 132.257812 253.800781 L 132.257812 263.445312 L 122.617188 263.445312 Z M 201.734375 169.019531 L 182.039062 169.019531 L 182.039062 157.179688 C 182.039062 155.097656 180.347656 153.402344 178.261719 153.402344 L 164.578125 153.402344 L 164.578125 141.5625 C 164.578125 139.480469 162.886719 137.785156 160.800781 137.785156 L 148.671875 137.785156 L 148.671875 125.488281 C 148.671875 123.40625 146.980469 121.710938 144.898438 121.710938 L 129.601562 121.710938 C 127.519531 121.710938 125.824219 123.40625 125.824219 125.488281 L 125.824219 137.785156 L 113.695312 137.785156 C 111.613281 137.785156 109.921875 139.480469 109.921875 141.5625 L 109.921875 153.402344 L 96.238281 153.402344 C 94.152344 153.402344 92.460938 155.097656 92.460938 157.179688 L 92.460938 169.019531 L 72.765625 169.019531 C 70.683594 169.019531 68.988281 170.710938 68.988281 172.796875 L 68.988281 322.101562 C 68.988281 324.183594 70.683594 325.875 72.765625 325.875 L 201.726562 325.875 C 203.8125 325.875 205.503906 324.183594 205.503906 322.101562 L 205.503906 172.796875 C 205.511719 170.710938 203.816406 169.019531 201.734375 169.019531 Z M 133.378906 129.265625 L 141.121094 129.265625 L 141.121094 137.785156 L 133.378906 137.785156 Z M 117.472656 145.339844 L 157.027344 145.339844 L 157.027344 153.402344 L 117.472656 153.402344 Z M 100.011719 160.957031 L 139.566406 160.957031 L 139.566406 169.019531 L 100.011719 169.019531 Z M 122.828125 318.324219 L 100.957031 318.324219 L 100.957031 284.96875 L 122.828125 284.96875 Z M 147.238281 318.324219 L 130.375 318.324219 L 130.375 281.195312 C 130.375 279.109375 128.683594 277.417969 126.601562 277.417969 L 97.175781 277.417969 C 95.089844 277.417969 93.398438 279.109375 93.398438 281.195312 L 93.398438 318.324219 L 76.542969 318.324219 L 76.542969 176.570312 L 147.238281 176.570312 Z M 147.117188 169.019531 L 147.117188 160.957031 L 174.484375 160.957031 L 174.484375 169.019531 Z M 197.957031 318.324219 L 154.792969 318.324219 L 154.792969 176.570312 L 197.949219 176.570312 L 197.949219 318.324219 Z M 167.777344 208 L 184.972656 208 C 187.054688 208 188.75 206.304688 188.75 204.222656 L 188.75 187.027344 C 188.75 184.941406 187.054688 183.25 184.972656 183.25 L 167.777344 183.25 C 165.691406 183.25 164 184.941406 164 187.027344 L 164 204.222656 C 164 206.304688 165.691406 208 167.777344 208 Z M 171.554688 190.796875 L 181.195312 190.796875 L 181.195312 200.4375 L 171.554688 200.4375 Z M 167.777344 239.496094 L 184.972656 239.496094 C 187.054688 239.496094 188.75 237.800781 188.75 235.71875 L 188.75 218.523438 C 188.75 216.4375 187.054688 214.746094 184.972656 214.746094 L 167.777344 214.746094 C 165.691406 214.746094 164 216.4375 164 218.523438 L 164 235.71875 C 164 237.808594 165.691406 239.496094 167.777344 239.496094 Z M 171.554688 222.300781 L 181.195312 222.300781 L 181.195312 231.941406 L 171.554688 231.941406 Z M 167.777344 270.996094 L 184.972656 270.996094 C 187.054688 270.996094 188.75 269.304688 188.75 267.222656 L 188.75 250.023438 C 188.75 247.941406 187.054688 246.25 184.972656 246.25 L 167.777344 246.25 C 165.691406 246.25 164 247.941406 164 250.023438 L 164 267.222656 C 164 269.304688 165.691406 270.996094 167.777344 270.996094 Z M 171.554688 253.800781 L 181.195312 253.800781 L 181.195312 263.445312 L 171.554688 263.445312 Z M 167.777344 302.5 L 184.972656 302.5 C 187.054688 302.5 188.75 300.808594 188.75 298.722656 L 188.75 281.527344 C 188.75 279.445312 187.054688 277.75 184.972656 277.75 L 167.777344 277.75 C 165.691406 277.75 164 279.445312 164 281.527344 L 164 298.722656 C 164 300.808594 165.691406 302.5 167.777344 302.5 Z M 171.554688 285.304688 L 181.195312 285.304688 L 181.195312 294.945312 L 171.554688 294.945312 Z M 171.554688 285.304688 "/></g></g></svg>