<svg xmlns="http://www.w3.org/2000/svg" xmlns:xlink="http://www.w3.org/1999/xlink" width="500" zoomAndPan="magnify" viewBox="0 0 375 374.999991" height="500" preserveAspectRatio="xMidYMid meet" version="1.2"><defs><clipPath id="a4c93bf0e0"><path d="M 45 55 L 258 55 L 258 298.632812 L 45 298.632812 Z M 45 55 "/></clipPath><clipPath id="13b638722c"><path d="M 251 43.632812 L 306 43.632812 L 306 103 L 251 103 Z M 251 43.632812 "/></clipPath></defs><g id="3b7debaf5f"><rect x="0" width="375" y="0" height="374.999991" style="fill:#ffffff;fill-opacity:1;stroke:none;"/><rect x="0" width="375" y="0" height="374.999991" style="fill:#000000;fill-opacity:1;stroke:none;"/><g clip-rule="nonzero" clip-path="url(#a4c93bf0e0)"><path style=" stroke:none;fill-rule:nonzero;fill:#ffffff;fill-opacity:1;" d="M 256.773438 136.109375 C 252.832031 121.394531 239.035156 111.902344 224.375 112.808594 L 212.238281 67.511719 C 209.882812 58.714844 200.378906 53.1875 191.539062 55.570312 L 175.730469 59.796875 C 169.132812 61.570312 164.523438 67.046875 163.46875 73.382812 L 109.863281 120.121094 L 67.523438 131.46875 C 51.832031 135.671875 42.492188 151.855469 46.695312 167.542969 L 59.125 213.9375 C 62.566406 226.796875 74.261719 235.773438 87.558594 235.773438 C 87.765625 235.773438 87.964844 235.734375 88.167969 235.734375 L 101.691406 286.210938 C 102.863281 290.570312 105.660156 294.214844 109.570312 296.472656 C 112.175781 297.976562 115.0625 298.746094 117.996094 298.746094 C 119.460938 298.746094 120.945312 298.550781 122.398438 298.164062 L 123.679688 297.820312 C 132.683594 295.40625 138.039062 286.121094 135.632812 277.117188 L 122.332031 227.496094 L 137.539062 223.425781 L 207.363281 237.109375 C 210.503906 240.917969 215.203125 243.3125 220.367188 243.3125 C 221.835938 243.3125 223.316406 243.117188 224.746094 242.734375 L 240.546875 238.5 C 249.550781 236.085938 254.914062 226.800781 252.5 217.796875 L 240.363281 172.503906 C 253.515625 165.953125 260.71875 150.828125 256.773438 136.109375 Z M 142.363281 211.59375 L 119.949219 127.953125 L 165.789062 87.984375 L 202.03125 223.285156 Z M 123.527344 280.351562 C 124.148438 282.683594 122.757812 285.089844 120.425781 285.707031 L 119.148438 286.054688 C 118.015625 286.359375 116.84375 286.195312 115.835938 285.613281 C 114.820312 285.023438 114.097656 284.085938 113.792969 282.957031 L 100.496094 233.335938 L 110.226562 230.730469 Z M 91.957031 222.660156 C 83.042969 225.035156 73.59375 219.515625 71.230469 210.691406 L 58.800781 164.296875 C 56.386719 155.289062 61.757812 145.984375 70.765625 143.566406 L 108.460938 133.464844 L 129.648438 212.554688 Z M 237.308594 226.382812 L 221.503906 230.617188 C 219.175781 231.25 216.757812 229.800781 216.148438 227.523438 L 175.886719 77.253906 C 175.261719 74.929688 176.652344 72.53125 178.976562 71.902344 L 194.785156 67.675781 C 195.160156 67.574219 195.542969 67.523438 195.925781 67.523438 C 197.898438 67.523438 199.628906 68.851562 200.140625 70.761719 L 240.40625 221.039062 C 241.027344 223.363281 239.636719 225.761719 237.308594 226.382812 Z M 236.992188 159.898438 L 227.753906 125.414062 C 235.566406 126.023438 242.53125 131.375 244.675781 139.363281 C 246.8125 147.335938 243.460938 155.46875 236.992188 159.898438 Z M 236.992188 159.898438 "/></g><g clip-rule="nonzero" clip-path="url(#13b638722c)"><path style=" stroke:none;fill-rule:nonzero;fill:#ffffff;fill-opacity:1;" d="M 251.453125 94.707031 L 295.59375 43.648438 L 305.070312 51.84375 L 260.933594 102.898438 Z M 251.453125 94.707031 "/></g><path style=" stroke:none;fill-rule:nonzero;fill:#ffffff;fill-opacity:1;" d="M 272.867188 174.640625 L 276.976562 162.8125 L 340.726562 184.960938 L 336.617188 196.792969 Z M 272.867188 174.640625 "/><path style=" stroke:none;fill-rule:nonzero;fill:#ffffff;fill-opacity:1;" d="M 267.785156 126.667969 L 333.925781 108.945312 L 337.167969 121.050781 L 271.027344 138.769531 Z M 267.785156 126.667969 "/></g></svg>