<svg xmlns="http://www.w3.org/2000/svg" xmlns:xlink="http://www.w3.org/1999/xlink" width="500" zoomAndPan="magnify" viewBox="0 0 375 374.999991" height="500" preserveAspectRatio="xMidYMid meet" version="1.2"><g id="b15af67061"><path style=" stroke:none;fill-rule:nonzero;fill:#ffffff;fill-opacity:1;" d="M 214.125 85.332031 L 161.367188 85.332031 C 161.023438 85.332031 160.679688 85.296875 160.339844 85.230469 C 160 85.164062 159.671875 85.0625 159.351562 84.929688 C 159.03125 84.800781 158.730469 84.636719 158.441406 84.445312 C 158.152344 84.253906 157.886719 84.035156 157.644531 83.789062 C 157.398438 83.542969 157.179688 83.277344 156.988281 82.992188 C 156.796875 82.703125 156.632812 82.398438 156.5 82.078125 C 156.367188 81.757812 156.269531 81.429688 156.199219 81.089844 C 156.132812 80.75 156.097656 80.410156 156.097656 80.0625 C 156.097656 79.71875 156.132812 79.375 156.199219 79.035156 C 156.269531 78.695312 156.367188 78.367188 156.5 78.046875 C 156.632812 77.726562 156.796875 77.421875 156.988281 77.136719 C 157.179688 76.847656 157.398438 76.582031 157.644531 76.335938 C 157.886719 76.09375 158.152344 75.875 158.441406 75.679688 C 158.730469 75.488281 159.03125 75.328125 159.351562 75.195312 C 159.671875 75.0625 160 74.960938 160.339844 74.894531 C 160.679688 74.828125 161.023438 74.792969 161.367188 74.792969 L 214.125 74.792969 C 214.46875 74.792969 214.8125 74.828125 215.152344 74.894531 C 215.492188 74.960938 215.820312 75.0625 216.140625 75.195312 C 216.460938 75.328125 216.765625 75.488281 217.050781 75.679688 C 217.339844 75.875 217.605469 76.09375 217.851562 76.335938 C 218.09375 76.582031 218.3125 76.847656 218.503906 77.136719 C 218.699219 77.421875 218.859375 77.726562 218.992188 78.046875 C 219.125 78.367188 219.226562 78.695312 219.292969 79.035156 C 219.359375 79.375 219.394531 79.71875 219.394531 80.0625 C 219.394531 80.410156 219.359375 80.75 219.292969 81.089844 C 219.226562 81.429688 219.125 81.757812 218.992188 82.078125 C 218.859375 82.398438 218.699219 82.703125 218.503906 82.992188 C 218.3125 83.277344 218.09375 83.542969 217.851562 83.789062 C 217.605469 84.035156 217.339844 84.253906 217.050781 84.445312 C 216.765625 84.636719 216.460938 84.800781 216.140625 84.929688 C 215.820312 85.0625 215.492188 85.164062 215.152344 85.230469 C 214.8125 85.296875 214.46875 85.332031 214.125 85.332031 Z M 214.125 85.332031 "/><path style=" stroke:none;fill-rule:nonzero;fill:#ffffff;fill-opacity:1;" d="M 214.125 119.980469 L 161.367188 119.980469 C 161.023438 119.980469 160.679688 119.945312 160.339844 119.878906 C 160 119.8125 159.671875 119.710938 159.351562 119.578125 C 159.03125 119.445312 158.730469 119.285156 158.441406 119.09375 C 158.152344 118.898438 157.886719 118.679688 157.644531 118.4375 C 157.398438 118.191406 157.179688 117.925781 156.988281 117.636719 C 156.796875 117.351562 156.632812 117.046875 156.5 116.726562 C 156.367188 116.40625 156.269531 116.078125 156.199219 115.738281 C 156.132812 115.398438 156.097656 115.054688 156.097656 114.710938 C 156.097656 114.363281 156.132812 114.023438 156.199219 113.683594 C 156.269531 113.34375 156.367188 113.011719 156.5 112.695312 C 156.632812 112.375 156.796875 112.070312 156.988281 111.78125 C 157.179688 111.496094 157.398438 111.230469 157.644531 110.984375 C 157.886719 110.738281 158.152344 110.519531 158.441406 110.328125 C 158.730469 110.136719 159.03125 109.972656 159.351562 109.84375 C 159.671875 109.710938 160 109.609375 160.339844 109.542969 C 160.679688 109.472656 161.023438 109.441406 161.367188 109.441406 L 214.125 109.441406 C 214.46875 109.441406 214.8125 109.472656 215.152344 109.542969 C 215.492188 109.609375 215.820312 109.710938 216.140625 109.84375 C 216.460938 109.972656 216.765625 110.136719 217.050781 110.328125 C 217.339844 110.519531 217.605469 110.738281 217.851562 110.984375 C 218.09375 111.230469 218.3125 111.496094 218.503906 111.78125 C 218.699219 112.070312 218.859375 112.375 218.992188 112.695312 C 219.125 113.011719 219.226562 113.34375 219.292969 113.683594 C 219.359375 114.023438 219.394531 114.363281 219.394531 114.710938 C 219.394531 115.054688 219.359375 115.398438 219.292969 115.738281 C 219.226562 116.078125 219.125 116.40625 218.992188 116.726562 C 218.859375 117.046875 218.699219 117.351562 218.503906 117.636719 C 218.3125 117.925781 218.09375 118.191406 217.851562 118.4375 C 217.605469 118.679688 217.339844 118.898438 217.050781 119.09375 C 216.765625 119.285156 216.460938 119.445312 216.140625 119.578125 C 215.820312 119.710938 215.492188 119.8125 215.152344 119.878906 C 214.8125 119.945312 214.46875 119.980469 214.125 119.980469 Z M 214.125 119.980469 "/><path style=" stroke:none;fill-rule:nonzero;fill:#ffffff;fill-opacity:1;" d="M 178.0625 192.625 C 177.582031 192.621094 177.097656 192.589844 176.617188 192.535156 C 176.136719 192.476562 175.660156 192.390625 175.191406 192.28125 C 174.722656 192.167969 174.257812 192.03125 173.804688 191.863281 C 173.347656 191.699219 172.902344 191.511719 172.46875 191.296875 C 172.035156 191.082031 171.617188 190.84375 171.210938 190.578125 C 170.804688 190.316406 170.414062 190.03125 170.039062 189.726562 C 169.667969 189.417969 169.3125 189.089844 168.976562 188.746094 C 168.636719 188.398438 168.320312 188.03125 168.027344 187.648438 C 167.730469 187.265625 167.457031 186.867188 167.210938 186.453125 C 166.960938 186.039062 166.734375 185.613281 166.53125 185.171875 C 166.332031 184.730469 166.15625 184.28125 166.003906 183.820312 C 165.855469 183.363281 165.730469 182.894531 165.632812 182.421875 C 165.535156 181.949219 165.464844 181.46875 165.421875 180.988281 C 165.378906 180.507812 165.363281 180.023438 165.378906 179.539062 C 165.390625 179.054688 165.429688 178.574219 165.496094 178.09375 C 165.5625 177.617188 165.65625 177.144531 165.777344 176.675781 C 166.730469 172.917969 167.3125 169.105469 167.519531 165.234375 C 165.710938 164.695312 163.921875 164.082031 162.160156 163.398438 C 160.398438 162.714844 158.667969 161.960938 156.964844 161.140625 C 155.261719 160.316406 153.597656 159.429688 151.964844 158.472656 C 150.335938 157.515625 148.746094 156.496094 147.195312 155.414062 C 145.648438 154.332031 144.144531 153.1875 142.6875 151.984375 C 141.226562 150.78125 139.820312 149.519531 138.464844 148.203125 C 137.109375 146.886719 135.804688 145.519531 134.558594 144.097656 C 133.3125 142.679688 132.125 141.210938 130.996094 139.695312 C 129.863281 138.179688 128.796875 136.621094 127.792969 135.019531 C 126.789062 133.417969 125.847656 131.78125 124.976562 130.101562 C 124.101562 128.425781 123.296875 126.71875 122.5625 124.976562 C 121.824219 123.238281 121.160156 121.46875 120.5625 119.675781 C 119.96875 117.882812 119.445312 116.066406 118.996094 114.230469 C 118.546875 112.394531 118.171875 110.542969 117.871094 108.675781 C 117.566406 106.8125 117.339844 104.9375 117.191406 103.050781 C 117.039062 101.167969 116.964844 99.28125 116.964844 97.390625 C 116.964844 95.171875 117.070312 92.957031 117.277344 90.746094 C 117.488281 88.535156 117.796875 86.339844 118.214844 84.160156 C 118.628906 81.980469 119.144531 79.824219 119.765625 77.695312 C 120.382812 75.5625 121.101562 73.464844 121.914062 71.398438 C 122.730469 69.335938 123.640625 67.3125 124.648438 65.335938 C 125.652344 63.355469 126.75 61.429688 127.9375 59.554688 C 129.125 57.679688 130.398438 55.863281 131.753906 54.109375 C 133.113281 52.351562 134.550781 50.664062 136.066406 49.042969 C 137.582031 47.425781 139.171875 45.878906 140.835938 44.40625 C 142.496094 42.9375 144.226562 41.546875 146.015625 40.238281 C 147.808594 38.929688 149.660156 37.707031 151.570312 36.574219 C 153.476562 35.441406 155.433594 34.398438 157.4375 33.449219 C 159.445312 32.496094 161.492188 31.644531 163.578125 30.886719 C 165.664062 30.128906 167.78125 29.46875 169.929688 28.910156 C 172.074219 28.351562 174.246094 27.894531 176.4375 27.542969 C 178.628906 27.1875 180.832031 26.9375 183.046875 26.789062 C 185.257812 26.640625 187.476562 26.597656 189.695312 26.660156 C 191.914062 26.722656 194.125 26.886719 196.328125 27.15625 C 198.53125 27.425781 200.714844 27.796875 202.882812 28.273438 C 205.050781 28.746094 207.195312 29.324219 209.308594 30 C 211.421875 30.675781 213.5 31.449219 215.539062 32.320312 C 217.582031 33.191406 219.578125 34.160156 221.527344 35.21875 C 223.476562 36.277344 225.375 37.425781 227.214844 38.664062 C 229.058594 39.902344 230.839844 41.222656 232.554688 42.628906 C 234.273438 44.035156 235.921875 45.519531 237.5 47.078125 C 239.078125 48.636719 240.582031 50.269531 242.003906 51.972656 C 243.429688 53.671875 244.773438 55.4375 246.03125 57.265625 C 247.289062 59.09375 248.460938 60.976562 249.542969 62.914062 C 250.625 64.851562 251.613281 66.835938 252.507812 68.867188 C 253.402344 70.898438 254.199219 72.96875 254.898438 75.074219 C 255.601562 77.179688 256.199219 79.3125 256.699219 81.476562 C 257.199219 83.640625 257.597656 85.820312 257.890625 88.019531 C 258.1875 90.21875 258.375 92.429688 258.464844 94.648438 C 258.550781 96.863281 258.53125 99.082031 258.410156 101.296875 C 258.289062 103.515625 258.0625 105.71875 257.734375 107.914062 C 257.402344 110.109375 256.972656 112.285156 256.4375 114.4375 C 255.90625 116.59375 255.269531 118.71875 254.535156 120.8125 C 253.804688 122.90625 252.972656 124.960938 252.046875 126.980469 C 251.117188 128.996094 250.097656 130.964844 248.984375 132.882812 C 247.875 134.804688 246.671875 136.667969 245.386719 138.476562 C 244.097656 140.285156 242.726562 142.027344 241.277344 143.707031 C 239.824219 145.386719 238.296875 146.992188 236.695312 148.527344 C 235.089844 150.0625 233.417969 151.519531 231.679688 152.898438 C 229.941406 154.273438 228.140625 155.566406 226.277344 156.777344 C 224.414062 157.984375 222.5 159.101562 220.535156 160.132812 C 218.566406 161.160156 216.558594 162.09375 214.503906 162.933594 C 212.449219 163.773438 210.359375 164.511719 208.234375 165.15625 C 206.109375 165.796875 203.960938 166.339844 201.785156 166.78125 C 198.339844 176.050781 193.125 183.703125 186.261719 189.546875 C 185.121094 190.535156 183.847656 191.292969 182.4375 191.820312 C 181.027344 192.351562 179.570312 192.617188 178.0625 192.625 Z M 187.746094 37.144531 C 154.527344 37.144531 127.503906 64.171875 127.503906 97.390625 C 127.503906 125.59375 146.660156 149.722656 174.089844 156.078125 C 174.667969 156.214844 175.207031 156.441406 175.710938 156.757812 C 176.214844 157.074219 176.652344 157.464844 177.019531 157.929688 C 177.390625 158.394531 177.675781 158.90625 177.871094 159.46875 C 178.070312 160.03125 178.167969 160.605469 178.167969 161.203125 C 178.210938 167.332031 177.480469 173.371094 175.980469 179.316406 C 175.90625 179.539062 175.875 179.769531 175.882812 180.007812 C 175.890625 180.242188 175.9375 180.472656 176.023438 180.691406 C 176.109375 180.910156 176.230469 181.109375 176.382812 181.289062 C 176.539062 181.46875 176.714844 181.617188 176.921875 181.738281 C 177.109375 181.863281 177.316406 181.957031 177.535156 182.015625 C 177.757812 182.074219 177.984375 182.09375 178.210938 182.078125 C 178.4375 182.058594 178.65625 182.003906 178.867188 181.910156 C 179.078125 181.816406 179.265625 181.691406 179.429688 181.535156 C 185.507812 176.359375 190.003906 169.296875 192.789062 160.550781 C 192.9375 160.085938 193.144531 159.644531 193.417969 159.234375 C 193.6875 158.824219 194.007812 158.460938 194.382812 158.140625 C 194.753906 157.820312 195.164062 157.554688 195.609375 157.351562 C 196.054688 157.144531 196.523438 157.003906 197.007812 156.929688 C 226.074219 152.445312 247.992188 126.847656 247.992188 97.390625 C 247.992188 64.171875 220.964844 37.144531 187.746094 37.144531 Z M 187.746094 37.144531 "/><path style=" stroke:none;fill-rule:nonzero;fill:#ffffff;fill-opacity:1;" d="M 212.777344 289.695312 C 212.28125 289.695312 211.789062 289.675781 211.355469 289.640625 C 197.273438 288.433594 172.339844 281.808594 155.003906 272.808594 C 152.96875 271.75 150.84375 270.921875 148.632812 270.320312 C 146.421875 269.722656 144.171875 269.363281 141.878906 269.246094 C 139.589844 269.128906 137.316406 269.253906 135.054688 269.628906 C 132.792969 270 130.59375 270.605469 128.464844 271.449219 C 127.863281 271.6875 127.238281 271.8125 126.589844 271.820312 C 125.945312 271.828125 125.316406 271.722656 124.710938 271.5 C 124.101562 271.273438 123.554688 270.953125 123.066406 270.527344 C 122.578125 270.101562 122.179688 269.605469 121.875 269.035156 L 98.230469 224.722656 C 98.042969 224.371094 97.898438 224 97.792969 223.617188 C 97.691406 223.230469 97.632812 222.835938 97.621094 222.4375 C 97.605469 222.039062 97.636719 221.644531 97.710938 221.253906 C 97.789062 220.859375 97.90625 220.484375 98.070312 220.117188 C 98.230469 219.753906 98.433594 219.410156 98.671875 219.09375 C 98.910156 218.773438 99.183594 218.484375 99.488281 218.226562 C 99.792969 217.96875 100.125 217.75 100.480469 217.570312 C 100.835938 217.386719 101.207031 217.246094 101.59375 217.148438 C 106.863281 215.832031 153.382812 204.183594 163.53125 204.183594 C 172.644531 204.183594 212.332031 214.5 231.03125 223.285156 C 232.3125 223.882812 233.507812 224.613281 234.621094 225.480469 C 235.734375 226.347656 236.734375 227.324219 237.628906 228.417969 C 238.523438 229.507812 239.28125 230.6875 239.910156 231.949219 C 240.535156 233.214844 241.015625 234.53125 241.34375 235.902344 L 290.902344 213.503906 C 292.042969 212.980469 293.226562 212.601562 294.457031 212.359375 C 295.6875 212.121094 296.929688 212.03125 298.183594 212.085938 C 299.433594 212.144531 300.664062 212.347656 301.867188 212.699219 C 303.070312 213.050781 304.214844 213.539062 305.300781 214.164062 C 312.140625 218.167969 314.539062 226.546875 311.886719 237.152344 C 311.441406 238.925781 310.707031 240.570312 309.691406 242.089844 C 308.671875 243.609375 307.429688 244.914062 305.960938 246.003906 C 299.160156 251.0625 280.46875 262.183594 260.972656 272.023438 C 237.726562 283.753906 221.523438 289.695312 212.777344 289.695312 Z M 140.226562 258.664062 C 143.644531 258.664062 147.007812 259.066406 150.328125 259.878906 C 153.644531 260.6875 156.816406 261.878906 159.847656 263.453125 C 175.800781 271.738281 199.46875 278.042969 212.242188 279.136719 C 214.496094 279.332031 224.339844 278.710938 256.214844 262.597656 C 274.957031 253.125 293.367188 242.203125 299.6875 237.515625 C 300.699219 236.761719 301.359375 235.773438 301.664062 234.550781 C 302.34375 231.832031 303.535156 225.296875 299.976562 223.207031 C 299.246094 222.804688 298.460938 222.589844 297.625 222.566406 C 296.792969 222.542969 295.996094 222.710938 295.242188 223.070312 L 240.269531 247.929688 C 239.578125 249.453125 238.699219 250.859375 237.632812 252.148438 C 237.4375 252.386719 237.230469 252.625 237.015625 252.863281 C 236.398438 253.554688 235.734375 254.195312 235.019531 254.789062 C 234.308594 255.378906 233.554688 255.917969 232.761719 256.398438 C 231.96875 256.875 231.144531 257.296875 230.289062 257.652344 C 229.433594 258.011719 228.558594 258.304688 227.65625 258.53125 C 226.757812 258.757812 225.847656 258.917969 224.925781 259.007812 C 224.003906 259.101562 223.078125 259.125 222.152344 259.078125 C 221.226562 259.03125 220.308594 258.917969 219.402344 258.734375 C 218.492188 258.554688 217.601562 258.304688 216.730469 257.992188 L 189.019531 248.109375 C 187.554688 247.585938 186.054688 247.230469 184.507812 247.046875 C 182.964844 246.863281 181.421875 246.855469 179.878906 247.027344 C 178.332031 247.195312 176.828125 247.535156 175.359375 248.046875 C 173.894531 248.558594 172.5 249.226562 171.1875 250.054688 C 170.894531 250.242188 170.585938 250.394531 170.261719 250.515625 C 169.9375 250.640625 169.605469 250.730469 169.265625 250.789062 C 168.925781 250.84375 168.582031 250.867188 168.234375 250.859375 C 167.886719 250.847656 167.546875 250.804688 167.210938 250.726562 C 166.871094 250.648438 166.546875 250.539062 166.230469 250.398438 C 165.914062 250.257812 165.617188 250.085938 165.335938 249.886719 C 165.050781 249.683594 164.792969 249.457031 164.554688 249.207031 C 164.316406 248.953125 164.105469 248.683594 163.921875 248.390625 C 163.738281 248.097656 163.585938 247.789062 163.460938 247.464844 C 163.339844 247.140625 163.25 246.808594 163.191406 246.46875 C 163.132812 246.125 163.109375 245.78125 163.121094 245.4375 C 163.128906 245.089844 163.175781 244.75 163.25 244.414062 C 163.328125 244.074219 163.4375 243.75 163.578125 243.433594 C 163.722656 243.117188 163.890625 242.816406 164.09375 242.535156 C 164.292969 242.253906 164.519531 241.996094 164.769531 241.757812 C 165.023438 241.519531 165.296875 241.308594 165.589844 241.125 C 167.578125 239.871094 169.679688 238.859375 171.898438 238.085938 C 174.117188 237.3125 176.394531 236.796875 178.730469 236.542969 C 181.066406 236.289062 183.402344 236.300781 185.734375 236.578125 C 188.066406 236.855469 190.339844 237.390625 192.550781 238.183594 L 220.261719 248.0625 C 221.03125 248.34375 221.824219 248.503906 222.636719 248.546875 C 223.453125 248.589844 224.257812 248.511719 225.050781 248.3125 C 225.84375 248.113281 226.585938 247.804688 227.289062 247.382812 C 227.988281 246.960938 228.609375 246.449219 229.15625 245.839844 C 229.28125 245.703125 229.398438 245.566406 229.511719 245.429688 C 230.304688 244.476562 230.84375 243.394531 231.128906 242.191406 C 231.414062 240.984375 231.417969 239.777344 231.140625 238.570312 C 230.863281 237.304688 230.320312 236.164062 229.507812 235.152344 C 228.699219 234.140625 227.707031 233.363281 226.53125 232.816406 C 208.042969 224.121094 169.652344 214.699219 163.515625 214.699219 C 157.5 214.699219 130.714844 220.792969 110.691406 225.71875 L 129.054688 260.148438 C 132.710938 259.15625 136.4375 258.660156 140.226562 258.664062 Z M 140.226562 258.664062 "/><path style=" stroke:none;fill-rule:nonzero;fill:#ffffff;fill-opacity:1;" d="M 107.386719 300.625 C 106.085938 300.625 104.808594 300.453125 103.550781 300.109375 C 102.296875 299.765625 101.113281 299.257812 99.996094 298.589844 C 98.878906 297.925781 97.871094 297.121094 96.972656 296.179688 C 96.070312 295.238281 95.316406 294.195312 94.699219 293.050781 L 64.242188 236.273438 C 63.796875 235.441406 63.4375 234.574219 63.164062 233.671875 C 62.886719 232.769531 62.703125 231.847656 62.613281 230.910156 C 62.519531 229.972656 62.515625 229.03125 62.609375 228.09375 C 62.699219 227.15625 62.882812 226.234375 63.15625 225.332031 C 63.429688 224.429688 63.785156 223.558594 64.230469 222.726562 C 64.671875 221.894531 65.191406 221.113281 65.789062 220.382812 C 66.386719 219.652344 67.050781 218.988281 67.777344 218.386719 C 68.507812 217.789062 69.285156 217.265625 70.117188 216.820312 L 85.179688 208.738281 C 86.011719 208.289062 86.878906 207.929688 87.78125 207.65625 C 88.683594 207.378906 89.605469 207.195312 90.542969 207.101562 C 91.484375 207.007812 92.421875 207.007812 93.359375 207.097656 C 94.300781 207.1875 95.222656 207.371094 96.125 207.644531 C 97.027344 207.917969 97.894531 208.273438 98.726562 208.71875 C 99.5625 209.160156 100.34375 209.683594 101.074219 210.28125 C 101.804688 210.878906 102.46875 211.539062 103.066406 212.269531 C 103.667969 212.996094 104.191406 213.777344 104.636719 214.609375 L 135.078125 271.378906 C 135.523438 272.210938 135.882812 273.078125 136.15625 273.980469 C 136.429688 274.882812 136.613281 275.804688 136.707031 276.742188 C 136.800781 277.679688 136.800781 278.617188 136.710938 279.558594 C 136.621094 280.496094 136.4375 281.417969 136.164062 282.320312 C 135.890625 283.222656 135.535156 284.089844 135.089844 284.925781 C 134.648438 285.757812 134.128906 286.539062 133.53125 287.269531 C 132.933594 288 132.269531 288.664062 131.542969 289.265625 C 130.816406 289.863281 130.035156 290.386719 129.203125 290.832031 L 114.140625 298.914062 C 112.03125 300.050781 109.78125 300.621094 107.386719 300.625 Z M 91.964844 217.574219 C 91.324219 217.574219 90.722656 217.722656 90.160156 218.027344 L 75.109375 226.105469 C 74.660156 226.347656 74.277344 226.664062 73.957031 227.058594 C 73.632812 227.449219 73.398438 227.890625 73.253906 228.375 C 73.105469 228.863281 73.058594 229.359375 73.109375 229.863281 C 73.160156 230.371094 73.304688 230.847656 73.542969 231.292969 L 103.988281 288.0625 C 104.226562 288.511719 104.542969 288.898438 104.9375 289.21875 C 105.328125 289.539062 105.769531 289.773438 106.253906 289.921875 C 106.742188 290.070312 107.238281 290.117188 107.742188 290.066406 C 108.25 290.015625 108.726562 289.867188 109.171875 289.628906 L 124.238281 281.550781 C 124.6875 281.308594 125.070312 280.992188 125.390625 280.601562 C 125.714844 280.207031 125.949219 279.765625 126.09375 279.28125 C 126.242188 278.796875 126.289062 278.300781 126.238281 277.792969 C 126.1875 277.289062 126.042969 276.8125 125.800781 276.363281 L 95.347656 219.605469 C 95.011719 218.980469 94.542969 218.488281 93.9375 218.125 C 93.328125 217.761719 92.671875 217.582031 91.964844 217.582031 Z M 126.714844 286.191406 Z M 126.714844 286.191406 "/></g></svg>